<svg width="26" height="26" viewBox="0 0 26 26" fill="none" xmlns="http://www.w3.org/2000/svg">
<path d="M11.3535 3.92715C9.65693 4.11396 7.98705 4.84597 6.75942 5.93635C5.20772 7.31267 4.28128 8.9978 3.96865 11.0146C3.87715 11.617 3.87715 12.8141 3.96865 13.4127C4.25459 15.2275 5.04759 16.7906 6.34385 18.0907C7.05298 18.796 7.73161 19.2802 8.62755 19.711C9.77893 20.2638 10.8884 20.5154 12.1923 20.5154C14.1405 20.5116 15.9018 19.9016 17.3963 18.7007L17.6632 18.4872L20.1032 20.9234C22.284 23.1041 22.5585 23.3634 22.6881 23.3901C23.1075 23.4663 23.4697 23.0927 23.382 22.6733C23.3591 22.5704 22.894 22.0862 20.9191 20.1075L18.4829 17.6675L18.6964 17.4006C19.8974 15.9061 20.5074 14.1447 20.5112 12.1965C20.515 10.8621 20.2367 9.68025 19.6457 8.49836C19.2264 7.65961 18.765 7.02673 18.0635 6.32523C16.8016 5.06328 15.3071 4.29315 13.5457 3.99578C13.012 3.90809 11.8568 3.86996 11.3535 3.92715ZM13.153 5.12809C16.0238 5.5246 18.3533 7.57573 19.1082 10.3741C19.2759 10.9994 19.3331 11.4683 19.3331 12.2156C19.3293 13.5995 19.0014 14.789 18.2999 15.9328C16.4852 18.8951 12.7718 20.138 9.57306 18.8532C9.06218 18.6473 8.91349 18.5749 8.47505 18.3042C7.9718 17.9954 7.59054 17.6942 7.15973 17.2672C5.79485 15.8985 5.06284 14.1333 5.06284 12.2041C5.06284 10.8507 5.41741 9.60781 6.13416 8.43355C6.66029 7.57573 7.57148 6.66454 8.4293 6.13841C9.26424 5.62754 10.2746 5.25772 11.1438 5.14335C11.3344 5.12047 11.5136 5.09378 11.5441 5.08616C11.7348 5.04803 12.7832 5.07472 13.153 5.12809Z" fill="#303030" stroke="#303030" stroke-width="0.1"/>
</svg>
