<svg width="172" height="72" viewBox="0 0 172 72" fill="none" xmlns="http://www.w3.org/2000/svg">
<path d="M68.1905 28.6C66.2705 28.6 65.0759 28.5467 64.6065 28.44C63.1559 28.1413 62.4305 27.3733 62.4305 26.136C62.4305 24.472 63.6999 23.64 66.2385 23.64H75.4865C78.0039 23.64 79.2625 24.472 79.2625 26.136C79.2625 27.3733 78.5372 28.1413 77.0865 28.44C76.6172 28.5467 75.4225 28.6 73.5025 28.6V43.512C73.5025 46.0293 72.6172 47.288 70.8465 47.288C69.0759 47.288 68.1905 46.0293 68.1905 43.512V28.6ZM83.5265 39.704C83.6332 40.7067 84.0492 41.4747 84.7745 42.008C85.4999 42.5413 86.3852 42.808 87.4305 42.808C88.3052 42.808 89.3612 42.5307 90.5985 41.976C91.8359 41.4 92.6039 41.112 92.9025 41.112C94.2679 41.112 94.9505 41.784 94.9505 43.128C94.9505 43.64 94.7585 44.152 94.3745 44.664C93.6919 45.6027 92.6039 46.3173 91.1105 46.808C89.8519 47.2347 88.5399 47.448 87.1745 47.448C84.6145 47.448 82.4812 46.5733 80.7745 44.824C79.0679 43.0533 78.2145 40.8773 78.2145 38.296C78.2145 35.736 79.0252 33.5493 80.6465 31.736C82.2892 29.9227 84.3799 29.016 86.9185 29.016C88.1772 29.016 89.3185 29.2507 90.3425 29.72C91.8145 30.4027 93.0199 31.416 93.9585 32.76C94.8972 34.104 95.3665 35.5653 95.3665 37.144C95.3665 37.9973 95.0572 38.648 94.4385 39.096C93.9052 39.5013 93.2012 39.704 92.3265 39.704H83.5265ZM83.4625 36.312H90.2785C90.2145 35.416 89.8625 34.68 89.2225 34.104C88.6039 33.528 87.8465 33.24 86.9505 33.24C86.0332 33.24 85.2652 33.528 84.6465 34.104C84.0279 34.6587 83.6332 35.3947 83.4625 36.312ZM104.201 46.04H104.073V50.52C104.073 52.9947 103.252 54.232 101.609 54.232C99.8597 54.232 98.985 52.9733 98.985 50.456V33.048C98.985 30.552 99.8597 29.304 101.609 29.304C102.633 29.304 103.454 29.848 104.073 30.936C105.118 29.7627 106.537 29.176 108.329 29.176C110.718 29.176 112.66 30.1147 114.153 31.992C115.518 33.7413 116.201 35.832 116.201 38.264C116.201 40.0773 115.785 41.7413 114.953 43.256C114.1 44.856 112.894 46.04 111.337 46.808C110.356 47.2987 109.332 47.544 108.265 47.544C106.708 47.544 105.353 47.0427 104.201 46.04ZM104.073 38.584C104.073 39.7573 104.34 40.7173 104.873 41.464C105.492 42.3173 106.366 42.744 107.497 42.744C108.628 42.744 109.502 42.2747 110.121 41.336C110.654 40.504 110.921 39.5013 110.921 38.328C110.921 37.176 110.644 36.1947 110.089 35.384C109.47 34.4453 108.606 33.976 107.497 33.976C106.558 33.976 105.748 34.296 105.065 34.936C104.404 35.5547 104.073 36.7707 104.073 38.584ZM125.678 37.56V43.512C125.678 46.0293 124.793 47.288 123.022 47.288C121.252 47.288 120.366 46.0293 120.366 43.512V27.128C120.366 24.6107 121.252 23.352 123.022 23.352C124.793 23.352 125.678 24.6107 125.678 27.128V32.632H135.47V27.128C135.47 24.6107 136.356 23.352 138.126 23.352C139.897 23.352 140.782 24.6107 140.782 27.128V43.512C140.782 46.0293 139.897 47.288 138.126 47.288C136.356 47.288 135.47 46.0293 135.47 43.512V37.56H125.678ZM144.961 38.264C144.961 35.64 145.771 33.4427 147.393 31.672C149.035 29.88 151.147 28.984 153.729 28.984C156.353 28.984 158.465 29.8693 160.065 31.64C161.665 33.4107 162.465 35.6187 162.465 38.264C162.465 40.888 161.675 43.0747 160.097 44.824C158.454 46.616 156.331 47.512 153.729 47.512C151.147 47.512 149.025 46.6053 147.361 44.792C145.761 43.0427 144.961 40.8667 144.961 38.264ZM150.305 38.2C150.305 39.3733 150.582 40.3653 151.137 41.176C151.755 42.1147 152.619 42.584 153.729 42.584C154.859 42.584 155.734 42.1147 156.353 41.176C156.886 40.3867 157.153 39.3947 157.153 38.2C157.153 37.048 156.875 36.0667 156.321 35.256C155.702 34.3173 154.838 33.848 153.729 33.848C152.598 33.848 151.723 34.3067 151.105 35.224C150.571 36.0347 150.305 37.0267 150.305 38.2ZM166.517 25.72C166.517 23.2027 167.381 21.944 169.109 21.944C170.816 21.944 171.669 23.2027 171.669 25.72V43.448C171.669 45.9653 170.816 47.224 169.109 47.224C167.381 47.224 166.517 45.9653 166.517 43.448V25.72Z" fill="url(#paint0_linear_1_39)"/>
<path d="M34.4919 40.657C35.7535 40.2222 38.1715 39.1851 38.1715 36.2415C38.1715 33.1926 35.5327 31.4176 34.4919 31.635" stroke="#6AAAE6" stroke-width="4" stroke-linecap="round" stroke-linejoin="round"/>
<path d="M39.1177 35.8209H51.1026" stroke="#6AAAE6" stroke-width="4" stroke-linecap="round" stroke-linejoin="round"/>
<path d="M34.4919 41.0775L34.4919 53.0624" stroke="#6AAAE6" stroke-width="4" stroke-linecap="round" stroke-linejoin="round"/>
<path d="M34.4919 19L34.4919 30.9849" stroke="#6AAAE6" stroke-width="4" stroke-linecap="round" stroke-linejoin="round"/>
<path d="M37.6458 39.1852L42.6921 44.2315" stroke="#6AAAE6" stroke-width="4" stroke-linecap="round" stroke-linejoin="round"/>
<path d="M37.8561 32.667L42.9024 27.6207" stroke="#6AAAE6" stroke-width="4" stroke-linecap="round" stroke-linejoin="round"/>
<path d="M38.2766 21.3129L35.333 24.2565" stroke="#6AAAE6" stroke-width="4" stroke-linecap="round" stroke-linejoin="round"/>
<path d="M48.5795 32.0363L45.6358 34.9799" stroke="#6AAAE6" stroke-width="4" stroke-linecap="round" stroke-linejoin="round"/>
<path d="M45.6358 36.8723L48.5795 39.816" stroke="#6AAAE6" stroke-width="4" stroke-linecap="round" stroke-linejoin="round"/>
<path d="M35.333 47.8059L38.2766 50.7496" stroke="#6AAAE6" stroke-width="4" stroke-linecap="round" stroke-linejoin="round"/>
<path d="M2 36.4954C4.00124 38.4652 8.00373 41.4957 11.2365 39.6774C14.9333 37.5981 16.3166 34.2225 19.5494 33.7679C20.9348 33.5731 22.7821 33.7679 27.8622 37.8591" stroke="#FFD391" stroke-width="4" stroke-linecap="round"/>
<path d="M27.8622 45.7723C22.7936 41.5492 20.9504 41.3481 19.5681 41.5492C16.3425 42.0184 14.9624 45.5029 11.2739 47.6493C9.66113 48.5877 7.85638 48.2749 6.20523 47.4733" stroke="#FFD391" stroke-width="4" stroke-linecap="round"/>
<path d="M28.2827 29.1688C23.1944 24.9385 21.3441 24.7371 19.9564 24.9385C16.7183 25.4086 15.3328 28.8989 11.63 31.0489C11.0336 31.3952 10.4111 31.5714 9.77969 31.6157" stroke="#FFD391" stroke-width="4" stroke-linecap="round"/>
<defs>
<linearGradient id="paint0_linear_1_39" x1="118.603" y1="23.8333" x2="118.603" y2="55" gradientUnits="userSpaceOnUse">
<stop stop-color="#6AAAE6"/>
<stop offset="0.917948" stop-color="#4C88C8"/>
</linearGradient>
</defs>
</svg>
