<svg width="34" height="34" viewBox="0 0 34 34" fill="none" xmlns="http://www.w3.org/2000/svg">
<rect width="34" height="34" rx="17" fill="url(#paint0_linear_1_190)"/>
<path d="M23.602 10.7156C22.5874 11.0887 10.0687 15.8962 9.88371 15.9857C9.27195 16.2752 9.20033 16.6572 9.71062 16.9168C9.76136 16.9436 10.6059 17.2122 11.5937 17.5196L13.3872 18.0776L17.4576 15.5291C19.6987 14.1296 21.5758 12.9657 21.6295 12.9478C21.7697 12.9001 21.8891 12.903 21.9428 12.9597C21.9816 12.9985 21.9846 13.0164 21.9518 13.0731C21.9339 13.1119 20.4448 14.4638 18.6483 16.0752C16.8518 17.6897 15.3746 19.0206 15.3687 19.0356C15.3627 19.0505 15.303 19.8562 15.2344 20.8261L15.109 22.5868L15.2463 22.5688C15.3209 22.5599 15.4373 22.5211 15.5059 22.4823C15.5775 22.4465 16.0431 22.0227 16.5474 21.5423C17.0488 21.0618 17.4785 20.659 17.4994 20.653C17.5203 20.644 18.32 21.211 19.2779 21.9123C20.2329 22.6136 21.0894 23.2194 21.1819 23.2612C21.4236 23.3746 21.6922 23.3835 21.8682 23.291C22.0264 23.2075 22.1786 22.9986 22.2442 22.7807C22.2681 22.6972 22.8172 20.1696 23.4588 17.1645C24.5301 12.163 24.6286 11.6795 24.6286 11.4199C24.6286 11.1752 24.6197 11.1155 24.554 10.9872C24.5092 10.8947 24.4287 10.8022 24.3511 10.7485C24.175 10.6261 23.8826 10.6112 23.602 10.7156Z" fill="white"/>
<defs>
<linearGradient id="paint0_linear_1_190" x1="0" y1="0" x2="36.4527" y2="2.87223" gradientUnits="userSpaceOnUse">
<stop stop-color="#6AAAE6"/>
<stop offset="1" stop-color="#4984C5"/>
</linearGradient>
</defs>
</svg>
