<svg width="34" height="34" viewBox="0 0 34 34" fill="none" xmlns="http://www.w3.org/2000/svg">
<rect width="34" height="34" rx="17" fill="url(#paint0_linear_1_188)"/>
<path d="M14.7639 11.9238C14.6786 11.9485 14.5835 11.9909 14.5507 12.0157C14.413 12.1288 14.2687 12.2878 14.2261 12.3727C14.1703 12.4893 14.1998 12.5211 14.4097 12.5812C14.7344 12.6767 14.9475 12.8605 15.0656 13.1609C15.1803 13.4543 15.2394 14.2037 15.2164 15.0909C15.1902 16.1442 15.1049 16.579 14.895 16.7699C14.613 17.0279 14.2326 16.7133 13.5997 15.6918C13.1308 14.9318 12.7143 14.0976 12.2749 13.0231C12.0749 12.5317 11.9208 12.3303 11.6945 12.2631C11.5928 12.2348 11.1567 12.2277 10.2188 12.2348C8.74318 12.2454 8.7235 12.249 8.63824 12.4716C8.57594 12.6378 8.61857 12.7898 8.92354 13.5002C9.82205 15.5928 10.6615 17.2082 11.5371 18.5372C13.0685 20.8666 14.5376 21.8952 16.6068 22.0896C17.3282 22.1568 17.9119 22.1214 18.1382 21.9942C18.3219 21.8917 18.3776 21.7397 18.4301 21.1989C18.4825 20.6262 18.5219 20.4389 18.6465 20.1526C18.8137 19.7673 19.0695 19.6436 19.381 19.7885C19.5057 19.8486 19.6499 19.9864 20.0172 20.4035C21.0895 21.6124 21.2273 21.7503 21.529 21.9058C21.706 21.9977 21.8897 22.0613 22.0405 22.0861C22.3389 22.1356 24.8443 22.1391 24.9984 22.0896C25.3591 21.98 25.4772 21.5205 25.2673 21.0575C25.0541 20.5944 24.6672 20.0996 23.7359 19.1028C23.2473 18.5761 22.8046 18.0777 22.7521 17.9964C22.6275 17.7879 22.6242 17.551 22.7423 17.2824C22.7882 17.1763 23.2014 16.5472 23.6572 15.8862C24.5918 14.5324 24.8967 14.0481 25.1099 13.5886C25.4181 12.9205 25.464 12.5848 25.2706 12.4009C25.1066 12.2419 24.9492 12.2277 23.3358 12.2277C21.929 12.2277 21.8274 12.2348 21.6995 12.2984C21.529 12.3797 21.483 12.4575 21.2273 13.1114C20.696 14.4511 20.1156 15.5292 19.4958 16.3103C19.2072 16.678 19.0334 16.8229 18.8826 16.8229C18.7055 16.8229 18.535 16.632 18.4333 16.3139C18.4104 16.2432 18.3907 15.515 18.3809 14.3132C18.3612 12.4822 18.3579 12.4186 18.2923 12.2596C18.2169 12.0864 18.1054 11.9803 17.9218 11.9167C17.7578 11.8566 14.9737 11.8637 14.7639 11.9238Z" fill="white"/>
<defs>
<linearGradient id="paint0_linear_1_188" x1="0" y1="0" x2="36.4527" y2="2.87223" gradientUnits="userSpaceOnUse">
<stop stop-color="#6AAAE6"/>
<stop offset="1" stop-color="#4984C5"/>
</linearGradient>
</defs>
</svg>
