<svg width="34" height="34" viewBox="0 0 34 34" fill="none" xmlns="http://www.w3.org/2000/svg">
<rect width="34" height="34" rx="17" fill="url(#paint0_linear_1_186)"/>
<path d="M16.4039 8.75484C15.1568 8.87421 14.2166 9.14523 13.1957 9.67112C11.6384 10.4777 10.3816 11.7586 9.60295 13.333C9.30248 13.9364 9.16355 14.3074 9.00524 14.901C8.81139 15.6495 8.75323 16.1045 8.75 16.9304C8.75 17.3434 8.76615 17.7886 8.78877 17.9628C8.96647 19.2856 9.38002 20.4245 10.0747 21.4892L10.3073 21.8474L9.79357 23.3605C9.50925 24.1962 9.28309 24.8801 9.28955 24.8866C9.29602 24.893 10.0003 24.6737 10.8598 24.3994C11.7192 24.1252 12.4332 23.8993 12.4493 23.8993C12.4623 23.8993 12.5947 23.9735 12.7433 24.0671C12.892 24.1574 13.2021 24.3252 13.4315 24.4349C15.5219 25.4318 17.9095 25.519 20.0483 24.6704C22.4715 23.7122 24.3324 21.6118 24.998 19.0888C25.2015 18.3145 25.25 17.8919 25.25 16.9949C25.25 16.098 25.2015 15.6754 24.998 14.901C24.2161 11.9425 21.8414 9.64209 18.8432 8.94197C18.3392 8.82582 17.8158 8.76452 17.1793 8.75484C16.8239 8.74839 16.475 8.74839 16.4039 8.75484ZM14.4331 12.5813C14.488 12.6103 14.5623 12.6878 14.6011 12.7587C14.6948 12.9297 15.4831 14.8172 15.5057 14.9333C15.5348 15.0785 15.3894 15.3269 15.0696 15.6883C14.7336 16.0657 14.6625 16.1851 14.6916 16.3206C14.7465 16.5658 15.4928 17.5563 15.9548 17.9919C16.6688 18.6662 17.7479 19.3082 18.2293 19.3437C18.4781 19.3599 18.5654 19.2921 18.9466 18.7888C19.1178 18.5597 19.2988 18.3306 19.3537 18.279C19.4765 18.1532 19.6606 18.1274 19.8706 18.2048C20.1355 18.3048 21.7607 19.0953 21.877 19.1824L21.9868 19.2631L21.9674 19.6051C21.9222 20.4826 21.6121 20.9375 20.7979 21.3344C20.0225 21.7119 19.4151 21.7022 18.2293 21.2924C16.6333 20.7407 15.79 20.2148 14.6431 19.063C14.068 18.4887 13.6609 18.0016 13.1957 17.3337C12.4267 16.2367 12.1327 15.3882 12.2199 14.5268C12.291 13.8363 12.5333 13.3266 13.0212 12.8394C13.257 12.6039 13.564 12.5071 14.0292 12.5232C14.2263 12.5297 14.3717 12.549 14.4331 12.5813Z" fill="white"/>
<defs>
<linearGradient id="paint0_linear_1_186" x1="0" y1="0" x2="36.4527" y2="2.87223" gradientUnits="userSpaceOnUse">
<stop stop-color="#6AAAE6"/>
<stop offset="1" stop-color="#4984C5"/>
</linearGradient>
</defs>
</svg>
